<mxfile host="app.diagrams.net" modified="2023-11-02T17:04:39.755Z" agent="Mozilla/5.0 (Windows NT 10.0; Win64; x64) AppleWebKit/537.36 (KHTML, like Gecko) Chrome/118.0.0.0 Safari/537.36" etag="_5NGtUmw8NW8AVwNKu4b" version="22.0.8" type="device">
  <diagram name="PÃ¡gina-1" id="JpvSKlsV3SqQ_jTaqWea">
    <mxGraphModel dx="910" dy="1668" grid="1" gridSize="10" guides="1" tooltips="1" connect="1" arrows="1" fold="1" page="1" pageScale="1" pageWidth="827" pageHeight="1169" math="0" shadow="0">
      <root>
        <mxCell id="0" />
        <mxCell id="1" parent="0" />
        <mxCell id="nsn22we42cXfYLvquxj8-1" value="&amp;lt;&amp;lt;Root&amp;gt;&amp;gt;&lt;br&gt;&amp;lt;&amp;lt;Entity&amp;gt;&amp;gt;&lt;br&gt;Passagem" style="rounded=0;whiteSpace=wrap;html=1;" vertex="1" parent="1">
          <mxGeometry x="258.53999999999996" y="25.929999999999993" width="120" height="60" as="geometry" />
        </mxCell>
        <mxCell id="nsn22we42cXfYLvquxj8-2" value="&amp;lt;&amp;lt;Value Object&amp;gt;&amp;gt;&lt;br style=&quot;border-color: var(--border-color);&quot;&gt;Id Passagem" style="rounded=0;whiteSpace=wrap;html=1;" vertex="1" parent="1">
          <mxGeometry x="423.53999999999996" y="-102.12" width="120" height="60" as="geometry" />
        </mxCell>
        <mxCell id="nsn22we42cXfYLvquxj8-3" value="" style="endArrow=diamondThin;endFill=1;endSize=24;html=1;rounded=0;exitX=0.5;exitY=0;exitDx=0;exitDy=0;entryX=0.5;entryY=1;entryDx=0;entryDy=0;" edge="1" parent="1" source="nsn22we42cXfYLvquxj8-1" target="nsn22we42cXfYLvquxj8-2">
          <mxGeometry width="160" relative="1" as="geometry">
            <mxPoint x="-16.460000000000008" y="-12.120000000000005" as="sourcePoint" />
            <mxPoint x="73.53999999999999" y="-62.120000000000005" as="targetPoint" />
          </mxGeometry>
        </mxCell>
        <mxCell id="nsn22we42cXfYLvquxj8-4" value="" style="shape=stencil(lZ3ZkiU3jkS/pl7TuC/PPdP/ITOVWrLWqGQl9Sx/P+Ro4kaWe+Sh9KYFyBvBIEHA4QA+5b/99uN3v37+lMJvv3/98s/P//XT97//+Cn/26eUfvrlx89ff/p9/dOn/O+f8t9++PL18z++fvnXL9//8e+/frcl9z/9x5f/3H/hv//Q6/2t9q2Vwv/88V/iW07/9x/+/of8zz/98q18in9Fvr31ovIV5VNQ+QHy9W1UkS8R5UtT+YLyQZ+/dJAvb3WIfKXnKW9hqnwD+ezfq9H6p7epf7/ReqZrOW75Ts8T36Z+r5FRPuv6T3r+cP25Sz69BZbPUeQjrH+bb32I/P9vwI/kU1V52A9tvHV9/gzrs+STyhd6nu5/v8D3XfIpiXyl51nnV9ez0t+385veGpyvVv3vd/pe1ddnkHy5tu8tT/ttyadvz0t+C/T389tIIh/pe+Xr87+Tp/VMuv/ztQE/kre/n+n51/HW9820n+NbaiJP9raFt67rQ/Zzyccq8rQ/63yr+vwN1n/Jiz1f8vA8dVzH6ZbvsP61v01dn8HyReUnnJfa3ua3z7MuEFqfdl0/t3yE/b/kQxN5soe1Xst9y2eWj0Xkaf/Ucl1Xt3yl9Vyv10Uev2++zNMt3+E8Lnm5r8t1AT7LL3P57f6veH/VqPtnLRh93+WOVJEn+1CD/30670te9k99q/S+4bpub3nyT8q6f7vId3ieJV/0+SfsnzL0fdvlwH4kX4PI034rXf2rhvthyct91/G+WPJ5ijzZ8yUv9q2j/SztrenfJ39vyYv9H3g/luWfB5FP9PfrFU7c8vj85br+b3nyB8rLPF3yk9c/6/07rw/ykbz4txPtT1nuSBX5SfstWXwRLo/uIwX5YEuBPMSlEIIqdPqFFVFISBjRp1kKqagCGokVBMhLr4ekXwhqdZcCHuPwFiSMzNdBelTIU++9pUC/sBRyUQXaqfm1MV8K66qHrZTXzi+qkOkdhsWS5fqUHylEWVa+nXJ/G10V6PgsBQ0/lwEBe5GXuZVfaBhgZQtolgJF3EuhJFUYYDKWQvzWZMSOPlquamOWAgWVS0G3N1v5pRCnKtA1m4t9uHGZhY8U1C4NdESWQjKFCkYgvxzjdwp4gLId0Xk5bx8ppK4KmbbGMt5ZFRp9h6TRylIg92UpKNwQ0B/PhscshUIvHdUILIVOViPqh1sKE4zxUgjf7tYUryD+WSFcIdY7BbqyloI4bRu1omUN14F8KSS8statrDBCQtxwKUjcuIENeOnth3y7vTfyAAdoOTqKXGWESpdCCapAXzqZb7uDR3qHfl2B7xTILi2FMFSB4JnlXTf5cPXajh8pKB5V8Yiu/y0O5Y4wwAis/y0R2P5NeqRqL93w2t0haVAFchJ3DC4nrl+w1rNCVlRhKTR66aw+344D6JHMtu7tSJsvXYbxncKAK2sDk3JEJ4ZKG7mNqoDnIeojLTuCVsM846VAaOidTHkpRLyyloL4rdue0y8EtRr7xqBfCNcJfikkRGz2BdVVYdCZNt97X8Rwx607UzHRjC7cvpWjKgz4cEtBTOVyV+hLb88iqkKHZb19l5cCu9JLQd+h4sW+FAQ5yBWhyKUgTmJmrGT5kOJ7LwVKDmync6gCmfto2cnMnvFSyEMVCA/errl86dcyPCssW11VodMvNDvTEyGQpaCPNHkvVcNIAyZl7yDsnQId0WhX1orhybauQFKirKWAm6/oiSsJgclY9GJfCo1WyZCckvGeXgriwpWD1cga+JVyoZXPCkmNQKmIpm0UwxToQomWDirt9Av6Dq/491nhlb99p4CrFG1rdExxLoUyVWGSqYwaNJWBSaelINa7TIx2NyLWVYFg8aUgnvFSmPRIQT9cDXjtRgfe+UxPdWZqvFInH8hLIm/J0ytPtcSVM/HzArfeyVOmbSiwXDMCP0N30ZInJ3pcF/5LvlyX0aN8v3Cql/y60Ik5oTtiySPTQkHT2hBK65qoWvIE+axTK/Ido/Sml86SJ5i4XUfwJT+YOaGJ/sr+f9UQpk70j6oSk1rA/VnV9C55YtJUJRLs1DllzhTubczUKXp+W7oQhA/khSiy5CnqLLo/W0b4ueh5bwyIFyWitIKhTtHE1qZ2wH7LSgxrB+j5Cnhf8g33Q9ZE5JKn/WkBcOuXJ/mBvJzfdgiYbT9MTAwltec94J2XNA5c8mSvXu7bS56ZcEn9uc7MqmSJzowoe9Qc0pIne2huSmcsK9r6VHaRNVHYG+7/qGhF50yzIQO9IwAZdP/0gUF1UOJQn+iwB70vBiPZQRMKI+L3NaLCYCZi0PM7mKkWNEAZGZ37oN93FAz7zOEbFe1t0ET2kh+wf4wYORpi5EHzlaPj+fX1GeiPBY2uxkR/KWjqZMlT2iHo+Z3sDwfNns6IQHFQcHwmvF+iEtsm4/tRv9eSp/siqn81CwMZiicteUrCR/UPZ7080g/ssxCxljw9f9IczmzIVEv2vRrnD9WfXPKE62e1J7Nz5k39/yVP/mdRf37JE/ps/tsczPyz/TOQDdA0S7fkkbmrxNclT/dRV9xsMvNmaI57MmxmkO3k+yiaQVwKB5RAmDRLAT2CZJ94Mk6dnxQOINgwBTISVb2y0zu0K53wfpXIrHT1s7YC/cK8CkLefzhOYehJO3i6SeHOpUD0oX2WZZUGIk77sAVVIBrpOj3dFDAtOR6OZyFz+rpN3ykgqSQ8KNAqeV5/WTCyAEtB4P+lQJBtNrhzdvS5duLIHomMRrYocXbmfRXN9s6GbkWu6odPzvbmaoaSEdjcbPM1vqks5zErMzi6Ym2zMr9iaDC9FAjjzUbjn+z9boaf2KWC4U2Jdp8UrEQrSQHDydT88qqEeKeACIjVmiwFgmCLpWEmV79s9m1SBTpApSnqMxm1Ld1uoMgE7qE411KgrbEZ3PYLBFQUQ7aX50+36AbKuyocSPdyAw1m+db0oEBXVs3q3a5oitCWWvRL7/CLCzHEn1zxHcWPtSmdbgeE9AvG5VwKuKzDuOWNizGsmGcpYDXJNLY4p8OaoxCV698M1hmVC8KS8r5GQQZHM9LhyOictGxfmhOfzaDfwVDxRlblpSM/UtPkyohc1mZX1gjoSu+6SIOnyDlpQ1+6c7yx4VX5hYEBbptKl+hcO9ENMusdIZUeFYPv7VQdLBdK53Ka7qhxRZShZ4WReuECaqP5dq64u2HZPwkE7ycWpDOhqezGr1gLTaSSXcQuqxTQtu4q+aYKkV66K6mkcV1Kt7CscXjfhzq660gRg2MdF+HU7kNLCU3z+XbxMGyNdeSl/KBVjIFG0OK+xhjXiApabeMJy7oUJI5ribPKRuheCgT7LwXxvXcekd4hazzdAsbT+/r4dlkrAyHDTlwdeD+MqqSSylVmw6rCKxPFRlM3dBeywh23FMTBqgxnLt9F7rjlchGusd0p+QUGcJfDJhfKchvpyloKzSgTFD8sp1Ni0crdLMZU5KQG9MiGs0QCbu8Z9GIvDBctBVmlFSDQ/TDNhStMVZ6GL+0iTNgaKx4Ru1T42l0Kyr+ryJnaqYimCnQ/TCsD2VQ0eqSk6YkVzhKtcWc7ZFkTMppmskrrhCduJnuHA+MoGyWQS1mmYfyZWVnTuz1MdH92DsbYolSksRQEdcgdg9dpgV9mns+sultz5ZeuWgC3qcqsINY7F/RbN/wkL535S1sVck5Yr7AhNPmFiMjJtDLBHNAY72ySVKZMJNbPbgU/EyGvpSAX++ao0Ut3vad38Ti9Q38oNKH7YRrpLXGSb0PK8tKFLd+wIo3Cm89o7ylj8di0wG9TY+jDDWtZc2A2DsWXdrKWjLG50nc2+yMF8Vt3UQX/gtyih1LHaXTOXZBAyzo1ftjlAqwgxjgedutUCHhz82lrTKt3ZifxQaHyXppWBXvY3k8KBIQ8KGT0ve+U40shHb9DUYVE52FaNTKHx3Nqqj8GpM7didl3Cuj+TL2yDk7lNACLHYepZD5Olfn57Kd9JF14uODvTk/e8vi+Q9GxynfVUN+t8hceCk9wl5w5jIDPW66rP8yVrLN7Vy/iys5mVdQn90ILkNkt9BYB7I1U/V5c5bddNuu6SNeBQWLMVZ5FI8+IXJ3tBuvzEEQ3LS0beH9m9XQCpupmVvz54NwlXf8XW+zD4Ejl0aWI6gAf5auuz0E+6vpgbYh1bQuI/U0jLwa89jZ1r+n6w/MM67YSkLu1s2t6vihlOIamDCNCBMOKMblMd0M72hWUMmGjW2MJBna6dx2l2o3x0MWV7O1Gy7TLKnGrhoVb3GV1PNhD4vINK96IF5b8kXzW5yFPcTx0faX7ZRS9jyK2iBmW+Y9oTxyijXy+stoH7rI6svonEe3nsMLFeEK9revuQd72A573+PA89PxGBjmsjxUIRuxKdCcn/+R+CN4FmMgsfSpHKGItzJKPKk/+TDdk+ZDwGprwisgq7EYoipjI6c3Xk/zbJe9dnimt2ZQWGRHx7Ua5YnvbDa+KSArY8ub/HLpmd5Enf7JbTTrXsu311PuX7G03fzjwfjBuyVG+mzwllZsyDwPCVN2yQwEx1d40uxo4jW7y7G/480TOutv7crm+r2fkbLJ9r+N51IgfATDfb+xv+H6OmEn28xI53W7nkf1JP+8B7wu3J9xy0e1VYJ6H2cOAzMT9vfTvkz/2l+W74gkB49lNlNH46HAfCZZ4sG9DqTlc27ju06LPj13vp+IJDHgtf8DiR/RnrHgpIvw7rLgoIoJ9l9L9Ofvz5L8lep4H//Agb/4Dymf3f6izzbDEIOMhI7s9p8zMKG5PcP3LQ7zJDI2p64n7wYqFDvvNGFGH/WxdxRmvGNZzk/Mf4+l+ZzJHVP+K2IQ7vtbnoSKYm0r7Tp7i8aGFPwHv32GdWwNy2YdloLhB0MZP1F4hPmBJhoBZjI3/6HrS+Z1W7MqN15Z80/VHvDcqKT2gfz6j5kgCUt02vqf7E9Nz6dou7+QZnxwmz/hq0vVHSoxNnQmc78h+32GGtGgx8OH7VmUNBa4NrP73qeZgVvfnyZ5Mo58d8Ofm8TUSJLq1p2a8tyv+ltD/f0j8M4FpqD3PfH6HUUgYTx6K7xX0J3eGXacyEN92OhHulOIUe1hP+UFhPTemOtlUg8bfdxpZHe3/NLzomIuX9R+nzLrgb5NZTlN5I/FgIMyBjocMzDQEPTKPylISMbFNmTZZKyFIGYNxHQ+5+ycNbiLx8FDHkyA3U+QBHw/rxHX60+76pUDg5t4c8kgdo3/fffHA8LTtHblcd58fUeB+b05m2Tcav4MwEA4utZukjbkeOAVCveIGOw+0Jea2b5aAUa8ObDBdpQNR0HgFh3E6S0FJdjxfZnbrhMw9TTcFTt6hM7mrWwvrcSI7yOW5rCtFr3ejitdtG/iINuNfRqyCnlavkjlBc/fmeCkkREymIW67nT+7hNqM9uAzWAybeRTSUtDesu3Eg5WWhrnxtVu08X3u7AcULTneMz1YQQq+8sTMyMzW6TIwtcX6ohXOXUzLPZZ4Yp5rx1HuxT+TseczE2eTnrjd+ZVeOimfpHCh0fSuqZU9OK8AOHAXvcag8YnzKoaOIPE00LFwh4npTVAHn4egMHqZmLd0XkkN3BR0qjGuB6RsWqERp16dWlLTCQvSiWvcFWBYMFa5INjZIpVbKQ4LP2tFvN75H7tZKREWqtWgdUZ0q/XHHQjBjKI+Xx2YoxvFitYmN6Q1kGR3CKXvkJVV0LjAxWHyxk2yh5mZlpkYZFaj8dCpYcVSjamew6hijWPpPq0Akgc2dSN/tY7c9rtu+6XAhRV96C26FAjv6YYf77nDnEAUQ9bDiSEhV1bnlMUenG39OXESs/U46gwS9WK14plZFXbiOm++brTPpUA8m24lZb1yotLKde9U8LOCMTN7w+qqbrfoTo5SrjLYKg0e2TsVTO6Tm14MRQM7j7Va50tq9gfjsc3yL4MJoK1Zd8x4akmh7UC5imFXhk9VoA/XrEnY4Gh390+2jqBU4NKSVRnwdKRmPSAH16s0b8rKtYDVeuucO67Ibt1cUlIYD31HKRdQrcpt8DC8aiNPB/ctq9ZFaXDEXq039+AZIbfD9lLgZqi7MryoAhnjGm3OaEDb6oOCJ3OyqmGVS4H2UrEil3MnKImyJtMqS7duh1wgv+u2iypQ09tSrddUQqZPqdYWNfNAYuurfifjnhWyNVLNiM3skbLWORY7o0Vlf93AxbNCsF6zFfOxeT71j6MOdcO6o1Ye0mmTSQ/tZnfTPFPAfvLG0To3/tOOxRyxZ6vk3nlCegdr3DF5xkM23vkGI6lpfbZ2cB0zR9k3X+c2+kZFmgNz9RvKtL6WlAzNQedgzYFhWZoPCtTX8p6V904BZ9s1daXvDOazgo3RvvMFzwrZ2jtPNAIpWbdDTokk77I3eXaRpUTm5I79xrq584zPCk/NbXEemUHAk8d1PzboJcjLWwC/SwI+ayRrbM2NB6KN357HWUTJ1pWgE6sVnxMN2VB2xv7QRKe0+2ci6t0U+pkTHQ0Do+763Q/k1S9haKmYzRsIa9rok5tP8WzBbH0GPr+3Ru9YXmSjRraRx9Ee2tGW+9glM16HkWKa+pmMNkZl30xuv2Nt9Q6t723+2G7Sgq379R4vh1EaOnog/8XRBhlzOMGaUyc07YbrTy5fCladz+USxv47xC7Buktyt9Wg7L/BTXqCtR3tCIdbZHQcvaHyFd0Dm2Z91y9+JO+jSfB76fpktD/WSXwktM9B2YgjIh3D7qPB5cDGph+cD7dx4n1iw9RX8cU7RI5Hw2i3x47Bu4/mYXqYebydR1hHa1fJo+uiVuf0crC3ct/1jHhi1Pu6cyM8a3bWE88pt/Xh8iLzsHo43HfiGjf2Q5M1wuROUEn3T2M8yjoGNx5Nkm0UXeM+/TbajLvIZmstyg3Fsp6vxj1ks3ZraJkDaYW6dpYMR9cJqaglzJ8WS3kxtbBYtojbg9iw3cblqz46kMvTrH3n7iiK/rBAuHUiGFPVPmzUGEcraveagdCkDVSuHfdnM7Zvx3IJq1asjHE3y783TFBa/FIr5wGMcsDp+m6jNgunM7XaozJtz7C2mrn9q41eZb7OsNGiCSFS734UuQOinvd6aKdj/XEDM5oemqYifVrt+cbeD7OBhakzeVB7UOyy8LCmaNPZyuBpYkFzKmXw+MOoTm7pPEzJYI7C6GiMWtRZGo/vjtbRtDIaZNjlUjhMkNLuuAfPzKaulcKuoo1dWwqHX5BWMOVAYrdeSyXzbs1qXja/jzafodSF78uNyhnlMNHWKOqBFC5IXApyRJcChVix6m7NjIFtmn5VhcMvCDqaGaWONoF5KZBbHa0rQOa4Jjbj7HYkNcaukWVueJNE69qduTNe7OqLLAXyxZeCEGR3HodeuhvZmqmfcRiduzIiPIwVXDjeGgoQ7cQPvbTVT+WMCOZSEIg3Zzb3UzGonPhLT82IZ+bGpWDLGhE3T0HDlswVFzvOz6qAcam1GcoBs2cbmTSmPw7ltKmfiUmNdyOldwoYayYFZ5a7hcGv9QVPAyklyWiTu5qNVimrN5PYdUg2MWcpUIC6I0JrnIzz/6zg9dCxcxc0NlUgjyzZhXKofNktPaMqkPvjYVXirP79ii+FcpqSqC9deGt07WOwcyesIK73nvtKjzQUq0/Mzk7DWoOyIdvHxfpRE9qavPlz4q1hrZkP7UeTTS66Dc8zoGKI7jZtxN+wadCHDptLQUplEmNyd0XTOwW6dnNU1OZQxJ6tRGPdSQcqgxZrch5z32hWhkjGeHfFt67ddMdls627MhI2X7b5Ttv7oA+XrfT9kJzMtkoHhkix5jY8QiGbdx87M0TMu48dncRsxjgeqT3awLHxO1Tr0Nn4HbzlJhcUZe/JVfFiXwoC++zu6fRIZr1j4RHd5nvHwsD2eKqnpu09rFFPxhA/W/VO5LrFPBTMj5xcy9OOaMbmZXla88GE6e7s/dkTxg95Krk0JnykEsxqcBVVsYbEG96BdyjROlpzi64SFbRbCrRbS7TNx01LSjIGIW6lG/W45QlzKNakeqIlLj4smcmxZrkHFkUWm30z0LXaJZMqj1mSqn+/83zeqrV+Hflnpen34jKi0hSG7uiG3fWYl3xDl6d0G06H6EqxJjBM1S9mTRsCShuw1ecnTuKSF7Zd5YnND01aiHtabJB8RZS+TBufhkzsarSPihBGNbygIPWvBpt3hWa6Whq+YIC3kxw6ZIEwm12nKigpFwBkQ+iZZZdtMBtmXWtRk16QxVGtaV5B2KzadO2MfuadVLvlcURzM3SHh0abPcnY9HKPSNTnwe9lfSUyxvs7aarylKWqNkGUxw5Xc2wyUparNZ3LiK41Gx+a0V41ayLH/X2aJZwS3o9LXjy/hPa/JQX7GEho5g8k9B826UHlserPWkMk7BfQiq8PsTiWvDUlo4KLZjTcxGOuq9p/HtrSmuEsaH+a1ZklrFDfRZEmT3+/69/nLHazPEI8TcQWWklED7pNbwJP6F7zLkxcE23dICLXHwdvgo1NxaM3kcam8dHiW26ybf48Jx17sqgK99uuhtbnxybVRf0rHoLTize9JNZxr2rPeRrnkreml5Sf3BXs1uSZS+Rt6M+haXbX9yWEsdtQFW7/0C3VyE0muzWOOrxv9ya9WFjeNetxaEJu8QI39e39YYgSdVmwzlrcVNPluZWLP89hKIOjTRgv+3oehkTY92KIw/fDwf7YfmMW01l+/cOv3/3+4x//8sNPP//82+9fv/zz8/v//8OXr5//8fXLv375/vWffvvxu18/r3/7Xw==);lineShape=1;" vertex="1" parent="1">
          <mxGeometry x="230.0007142577165" y="-119.9992194677219" width="343.718362413525" height="238.46317755276596" as="geometry" />
        </mxCell>
      </root>
    </mxGraphModel>
  </diagram>
</mxfile>
